<svg width="21" height="15" viewBox="0 0 21 15" fill="none" xmlns="http://www.w3.org/2000/svg">
<path d="M0.0830078 14.7918V8.1512C0.0830078 7.71718 0.169813 7.30919 0.343424 6.92725C0.517036 6.5453 0.777452 6.2328 1.12467 5.98975V2.96891C1.12467 2.18766 1.38943 1.53228 1.91895 1.00277C2.44846 0.473253 3.10384 0.208496 3.88509 0.208496H8.57259C8.95454 0.208496 9.31044 0.295302 9.6403 0.468913C9.97016 0.642524 10.2566 0.876899 10.4997 1.17204C10.7427 0.876899 11.0248 0.642524 11.346 0.468913C11.6672 0.295302 12.0188 0.208496 12.4007 0.208496H17.0882C17.8695 0.208496 18.5292 0.473253 19.0674 1.00277C19.6056 1.53228 19.8747 2.18766 19.8747 2.96891V5.98975C20.2219 6.2328 20.4823 6.5453 20.6559 6.92725C20.8295 7.30919 20.9163 7.71718 20.9163 8.1512V14.7918H19.3538V12.7085H1.64551V14.7918H0.0830078ZM11.2809 5.54704H18.3122V2.96891C18.3122 2.62169 18.195 2.33523 17.9606 2.10954C17.7262 1.88384 17.4354 1.771 17.0882 1.771H12.3226C12.0275 1.771 11.7801 1.89252 11.5804 2.13558C11.3808 2.37863 11.2809 2.65641 11.2809 2.96891V5.54704ZM2.68717 5.54704H9.71842V2.96891C9.71842 2.65641 9.6186 2.37863 9.41895 2.13558C9.21929 1.89252 8.9719 1.771 8.67676 1.771H3.88509C3.55523 1.771 3.27311 1.88818 3.03874 2.12256C2.80436 2.35693 2.68717 2.63905 2.68717 2.96891V5.54704ZM1.64551 11.146H19.3538V8.1512C19.3538 7.85607 19.254 7.60867 19.0544 7.40902C18.8547 7.20936 18.6073 7.10954 18.3122 7.10954H2.68717C2.39204 7.10954 2.14464 7.20936 1.94499 7.40902C1.74533 7.60867 1.64551 7.85607 1.64551 8.1512V11.146ZM19.3538 11.146H1.64551H19.3538Z" fill="#071C35"/>
</svg>
