<svg width="297" height="58" viewBox="0 0 297 58" fill="none" xmlns="http://www.w3.org/2000/svg">
<g clip-path="url(#clip0_82_678)">
<path d="M53.0105 57.3578C52.8917 56.3958 52.8596 55.0858 52.8934 53.6743C52.9351 51.93 53.0787 49.9882 53.3015 48.2714L53.3019 48.2678L57.3428 18.816L57.5525 17.2871L58.2792 18.6486L78.9299 57.3398H82.2279L102.547 20.3238L103.274 18.999L103.48 20.4961L107.227 47.6699L53.0105 57.3578ZM53.0105 57.3578H47.0735M53.0105 57.3578H47.0735M47.0735 57.3578C47.5989 56.2172 47.9645 55.2764 48.2627 54.1635C48.6184 52.8357 48.8743 51.2763 49.205 48.8551L49.205 48.8548L55.7584 0.683072H58.3835L82.5054 45.771L82.9465 46.5953L83.3872 45.7708L107.491 0.683072H109.291L116.063 48.7488C116.404 51.1689 116.707 52.7503 117.1 54.1057C117.429 55.2399 117.819 56.2053 118.335 57.3578H107.221C107.693 54.5099 107.661 50.7603 107.227 47.6712L47.0735 57.3578ZM40.7403 0.683072L40.7981 5.29C40.3371 5.09808 39.9292 4.91978 39.5452 4.74919L39.5301 4.74249L39.5146 4.7368C37.9627 4.1666 35.9709 3.62166 33.8849 3.64008H33.8683H33.8492H33.8299H33.8103H33.7906H33.7706H33.7503H33.7299H33.7092H33.6883H33.6672H33.6458H33.6242H33.6024H33.5804H33.5581H33.5356H33.5129H33.49H33.4669H33.4435H33.42H33.3962H33.3722H33.348H33.3235H33.2989H33.274H33.249H33.2237H33.1982H33.1725H33.1466H33.1205H33.0942H33.0676H33.0409H33.014H32.9868H32.9595H32.9319H32.9042H32.8763H32.8481H32.8198H32.7912H32.7625H32.7335H32.7044H32.6751H32.6456H32.6158H32.5859H32.5558H32.5255H32.4951H32.4644H32.4335H32.4025H32.3712H32.3398H32.3082H32.2764H32.2444H32.2123H32.1799H32.1474H32.1147H32.0818H32.0488H32.0155H31.9821H31.9485H31.9147H31.8808H31.8467H31.8124H31.7779H31.7433H31.7085H31.6735H31.6383H31.603H31.5675H31.5319H31.496H31.46H31.4239H31.3876H31.3511H31.3144H31.2776H31.2407H31.2035H31.1662H31.1288H31.0912H31.0534H31.0155H30.9774H30.9392H30.9008H30.8623H30.8236H30.7848H30.7458H30.7066H30.6674H30.6279H30.5883H30.5486H30.5087H30.4687H30.4285H30.3882H30.3478H30.3072H30.2664H30.2256H30.1845H30.1434H30.1021H30.0606H30.0191H29.9774H29.9355H29.8936H29.8515H29.8092H29.7668H29.7243H29.6817H29.6389H29.5961H29.553H29.5099H29.4666H29.4232H29.3797H29.336H29.2923H29.2484H29.2044H29.1602H29.116H29.0716H29.0271H28.9825H28.9378H28.8929H28.848H28.8029H28.7577H28.7124H28.667H28.6215H28.5758H28.5301H28.4842H28.4383H28.3922H28.346H28.2998H28.2534H28.2069H28.1603H28.1136H28.0668H28.0199H27.9729H27.9258H27.8786H27.8313H27.7839H27.7364H27.6889H27.6412H27.5934H27.5455H27.4976H27.4495H27.4014H27.3532H27.3049H27.2564H27.208H27.1594H27.1107H27.062H27.0131H26.9642H26.9152H26.8661H26.8169H26.7677H26.7184H26.669H26.6195H26.5699H26.5203H26.4706H26.4208H26.3709H26.321H26.271H26.2209H26.1707H26.1205H26.0702H26.0199H25.9694H25.9189H25.8684H25.8177H25.767H25.7163H25.6655H25.6146H25.5636H25.5126H25.4616H25.4105H25.3593H25.308H25.2567H25.2054H25.154H25.1025H25.051H24.9994H24.9478H24.8962H24.8444H24.7927H24.7408H24.689H24.6371H24.5851H24.5331H24.481H24.4289H24.3768H24.3246H24.2724H24.2201H24.1678H24.1155H24.0631H24.0107H23.9582H23.9057H23.8532H23.8006H23.748H23.6954H23.6427H23.59H23.5373H23.4845H23.4318H23.3789H23.3261H23.2732H23.2203H23.1674H23.1145H23.0615H23.0085H22.9555H22.9025H22.8494H22.7963H22.7432H22.6901H22.637H22.5839H22.5307H22.4775H22.4243H22.3711H22.3179H22.2647H22.2114H22.1582H22.1049H22.0517H21.9984H21.9451H21.8918H21.8385H21.7852H21.7319H21.6786H21.6253H21.572H21.5187H21.4654H21.4121H21.3588H21.3055H21.2522H21.1989H21.1456H21.0923H21.039H20.9857H20.9325H20.8792H20.826H20.7727H20.7195H20.6663H20.6131H20.5599H20.5067H20.4536H20.4004H20.3473H20.2942H20.2411H20.188H20.135H20.0819H20.0289H19.976H19.923H19.87H19.8171H19.7642H19.7114H19.6585H19.6057H19.5529H19.5002H19.4475H19.3948H19.3421H19.2895H19.2369H19.1843H19.1318H19.0793H19.0269H18.9745H18.9221H18.8697H18.8174H18.7652H18.713H18.6608H18.6087H18.5566H18.5045H18.4525H18.4006H18.3487H18.2968H18.245H18.1932H18.1415H18.0898H18.0382H17.9867H17.9352H17.8837H17.8323H17.781H17.7297H17.6785H17.6273H17.5762H17.5251H17.4741H17.4232H17.3723H17.3215H17.2708H17.2201H17.1695H17.1189H17.0684H17.018H16.9677H16.9174H16.8672H16.817H16.767H16.717H16.6671H16.6172H16.5674H16.5177H16.4681H16.4186H16.3691H16.3197H16.2704H16.2211H16.172H16.1229H16.0739H16.025H15.9762H15.9275H15.8788H15.8302H15.7818H15.7334H15.6851H15.6368H15.5887H15.5407H15.4927H15.4449H15.3971H15.3495H15.3019H15.2544H15.2071H15.1598H15.1126H15.0655H15.0185H14.9717H14.9249H14.8782H14.8316H14.7852H14.7388H14.6925H14.6464H14.6003H14.5544H14.5085H14.4628H14.4172H14.3717H14.3263H14.281H14.2359H14.1908H14.1459H14.101H14.0563H14.0117H13.9673H13.9229H13.8787H13.8346H13.7906H13.7467H13.7029H13.6593H13.6158H13.5724H13.5292H13.4861H13.4431H13.4002H13.3575H13.3148H13.2724H13.23H13.1878H13.1457H13.1038H13.0619H13.0203H12.9787H12.9373H12.896H12.8549H12.8139H12.773H12.7323H12.6918H12.6513H12.611H12.5709H12.5309H12.491H12.4513H12.4118H12.3724H12.3331H12.294H12.255H12.2162H12.1775H12.139H12.1007H12.0625H12.0244H11.9865H11.9488H11.9112H11.8738H11.8365H11.7994H11.7625H11.7257H11.6891H11.6526H11.6164H11.5802H11.5443H11.5085H11.4728H11.4374H11.4021H11.367H11.332H10.832V4.14008V26.7258V27.2258H11.332H37.1316L36.1209 30.6706H11.332H10.832V31.1706V53.7744V54.2744H11.332H11.3606H11.3895H11.4187H11.448H11.4776H11.5075H11.5376H11.5679H11.5985H11.6293H11.6603H11.6916H11.7231H11.7548H11.7867H11.8189H11.8514H11.884H11.9169H11.95H11.9833H12.0168H12.0506H12.0846H12.1188H12.1532H12.1879H12.2227H12.2578H12.2931H12.3286H12.3643H12.4003H12.4364H12.4728H12.5093H12.5461H12.5831H12.6203H12.6576H12.6952H12.733H12.771H12.8092H12.8476H12.8862H12.925H12.964H13.0032H13.0426H13.0822H13.1219H13.1619H13.202H13.2424H13.2829H13.3236H13.3645H13.4056H13.4469H13.4883H13.53H13.5718H13.6138H13.656H13.6983H13.7409H13.7836H13.8265H13.8695H13.9128H13.9562H13.9997H14.0435H14.0874H14.1315H14.1757H14.2202H14.2647H14.3095H14.3544H14.3995H14.4447H14.4901H14.5357H14.5814H14.6272H14.6733H14.7194H14.7658H14.8123H14.8589H14.9057H14.9526H14.9997H15.047H15.0943H15.1419H15.1895H15.2373H15.2853H15.3334H15.3816H15.43H15.4786H15.5272H15.576H15.6249H15.674H15.7232H15.7725H15.822H15.8716H15.9213H15.9711H16.0211H16.0712H16.1215H16.1718H16.2223H16.2729H16.3236H16.3744H16.4254H16.4765H16.5277H16.579H16.6304H16.6819H16.7336H16.7854H16.8372H16.8892H16.9413H16.9935H17.0458H17.0983H17.1508H17.2034H17.2561H17.309H17.3619H17.4149H17.4681H17.5213H17.5746H17.628H17.6815H17.7352H17.7889H17.8426H17.8965H17.9505H18.0046H18.0587H18.113H18.1673H18.2217H18.2762H18.3307H18.3854H18.4401H18.4949H18.5498H18.6048H18.6599H18.715H18.7702H18.8254H18.8808H18.9362H18.9917H19.0472H19.1029H19.1585H19.2143H19.2701H19.326H19.3819H19.438H19.494H19.5502H19.6063H19.6626H19.7189H19.7753H19.8317H19.8881H19.9447H20.0012H20.0579H20.1145H20.1713H20.228H20.2849H20.3417H20.3986H20.4556H20.5126H20.5696H20.6267H20.6838H20.741H20.7982H20.8554H20.9127H20.97H21.0273H21.0847H21.1421H21.1995H21.2569H21.3144H21.3719H21.4295H21.4871H21.5446H21.6023H21.6599H21.7176H21.7752H21.8329H21.8906H21.9484H22.0061H22.0639H22.1217H22.1795H22.2373H22.2951H22.3529H22.4107H22.4686H22.5264H22.5843H22.6421H22.7H22.7579H22.8157H22.8736H22.9315H22.9894H23.0472H23.1051H23.1629H23.2208H23.2787H23.3365H23.3943H23.4522H23.51H23.5678H23.6256H23.6833H23.7411H23.7988H23.8566H23.9143H23.972H24.0297H24.0873H24.1449H24.2026H24.2601H24.3177H24.3752H24.4327H24.4902H24.5477H24.6051H24.6625H24.7199H24.7772H24.8345H24.8918H24.949H25.0062H25.0633H25.1204H25.1775H25.2345H25.2915H25.3485H25.4054H25.4622H25.519H25.5758H25.6325H25.6892H25.7458H25.8024H25.8589H25.9153H25.9718H26.0281H26.0844H26.1406H26.1968H26.2529H26.309H26.365H26.4209H26.4768H26.5326H26.5884H26.644H26.6996H26.7552H26.8107H26.8661H26.9214H26.9767H27.0318H27.087H27.142H27.1969H27.2518H27.3066H27.3613H27.416H27.4705H27.525H27.5794H27.6337H27.688H27.7421H27.7961H27.8501H27.904H27.9577H28.0114H28.065H28.1185H28.1719H28.2252H28.2785H28.3316H28.3846H28.4375H28.4903H28.543H28.5956H28.6481H28.7005H28.7528H28.805H28.8571H28.9091H28.9609H29.0127H29.0643H29.1158H29.1672H29.2185H29.2697H29.3208H29.3717H29.4225H29.4732H29.5238H29.5743H29.6246H29.6748H29.7249H29.7749H29.8247H29.8744H29.924H29.9734H30.0227H30.0719H30.1209H30.1698H30.2186H30.2672H30.3157H30.3641H30.4123H30.4604H30.5083H30.5561H30.6038H30.6513H30.6987H30.7459H30.7929H30.8398H30.8866H30.9332H30.9797H31.026H31.0721H31.1182H31.164H31.2097H31.2552H31.3006H31.3458H31.3908H31.4357H31.4804H31.525H31.5694H31.6136H31.6577H31.7016H31.7453H31.7889H31.8322H31.8754H31.9185H31.9613H32.004H32.0465H32.0889H32.131H32.173H32.2148H32.2564H32.2978H32.3391H32.3801H32.421H32.4617H32.5022H32.5425H32.5826H32.6225H32.6623H32.7018H32.7412H32.7803H32.8193H32.858H32.8966H32.935H32.9731H33.0111H33.0489H33.0864H33.1238H33.1609H33.1979H33.2346H33.2712H33.3075H33.3436H33.3795H33.4152H33.4507H33.4859H33.521H33.5558H33.5904H33.6248H33.659H33.6929H33.7267H33.7602H33.7935H33.8265H33.8594H33.892H33.9243H33.9565H33.9884H34.0201H34.0516H34.0828H34.1138H34.1446H34.1751H34.2054H34.2354H34.2652H34.2948H34.3242H34.3532H34.3821H34.4107H34.4391H34.4672H34.495H34.5227H34.55H34.5771H34.604H34.6306H34.657H34.6831H34.709H34.7346H34.7599H34.785H34.8098H34.8344H34.8587H34.8827H34.9065H34.93H34.9533H34.9762H34.999H35.0214H35.0436H35.0655H35.0871H35.1085H35.1296H35.1504H35.1709H35.1867C37.2837 54.3112 39.3545 53.7477 40.8849 53.1868C41.5655 52.9374 42.1455 52.6862 42.5814 52.4832L41.8335 57.3578H0.845161C2.23694 53.9253 2.23213 51.7545 2.22659 49.2512C2.22624 49.0921 2.22588 48.9316 2.22588 48.7694V9.27155C2.22588 9.11438 2.22624 8.95803 2.2266 8.80218C2.23223 6.36028 2.23757 4.04252 0.851843 0.683072H12.7279H40.7403ZM176.87 54.0039C177.711 55.1407 178.636 56.1468 179.877 57.3578H168.528L158.927 36.5264L158.793 36.2357H158.473H138.893H138.571L138.438 36.5287L128.965 57.3578H128.461H122.692C124.657 54.8854 125.5 53.4108 127.059 50.0457L127.06 50.0433L149.629 0.683072H151.541L173.742 48.6541L173.745 48.6621L173.749 48.67C174.946 51.0346 175.839 52.6097 176.87 54.0039ZM189.734 57.3578H183.948C185.912 54.8854 186.755 53.4108 188.314 50.0457L188.315 50.0433L210.884 0.683072H212.796L235.015 48.6543L235.019 48.6622L235.023 48.67C236.22 51.0346 237.112 52.6097 238.143 54.0039C238.984 55.1407 239.91 56.1468 241.15 57.3578H229.783L220.182 36.5264L220.048 36.2357H219.728H200.148H199.826L199.693 36.5287L190.22 57.3578H189.734ZM268.769 30.8815C268.422 31.2419 268.422 31.242 268.422 31.2422L268.423 31.2431L268.427 31.2466L268.442 31.2607L268.499 31.3162L268.725 31.533L269.581 32.3567L272.648 35.3051C275.19 37.75 278.592 41.0215 282.03 44.328C287.676 49.758 293.418 55.2812 295.613 57.394H285.16C279.329 52.1579 271.806 45.2233 262.407 34.2779L262.405 34.2755C261.016 32.6776 259.81 31.7512 258.769 31.216C257.72 30.6771 256.863 30.5479 256.198 30.5089L255.669 30.4778V31.008V48.7694C255.669 51.4823 255.67 53.7119 257.082 57.3578H245.682C247.074 53.9253 247.069 51.7545 247.063 49.2512C247.063 49.0921 247.063 48.9316 247.063 48.7694V9.23541C247.063 9.07824 247.063 8.92189 247.063 8.76604C247.069 6.32414 247.074 4.00638 245.689 0.646935H257.565C257.909 0.646935 258.272 0.64577 258.651 0.644553C263.04 0.630449 269.566 0.609483 275.176 2.31914C278.214 3.2453 280.943 4.66825 282.909 6.83987C284.867 9.00086 286.103 11.9404 286.103 15.975C286.103 20.205 284.404 23.4388 281.703 25.7714C278.992 28.1131 275.252 29.562 271.171 30.15L268.721 30.3838L267.637 30.4872L268.422 31.2419L268.769 30.8815ZM269.856 27.8185L269.862 27.8267C275.566 25.7034 277.466 20.3743 277.276 15.9356L277.276 15.9325C277.173 13.8095 276.633 10.3711 273.687 7.56563C270.742 4.76041 265.488 2.67998 256.168 3.0442L255.687 3.06298V3.54382V28.1351V28.6088L256.16 28.6344L256.187 28.1351C256.16 28.6344 256.16 28.6344 256.16 28.6344L256.161 28.6344L256.162 28.6345L256.168 28.6348L256.191 28.636L256.279 28.6405C256.357 28.6443 256.47 28.6498 256.616 28.6562C256.906 28.6692 257.324 28.6863 257.835 28.7029C258.855 28.736 260.248 28.7673 261.732 28.7593C263.215 28.7514 264.798 28.7043 266.196 28.5798C267.577 28.4569 268.84 28.2541 269.646 27.9079L269.649 27.9066C269.728 27.8718 269.789 27.846 269.83 27.8291L269.856 27.8185ZM201.567 32.4992L201.245 33.2064H202.022H217.836H218.619L218.29 32.4964L210.318 15.2771L209.861 14.289L209.41 15.2799L201.567 32.4992ZM140.33 32.4992L140.008 33.2064H140.785H156.599H157.382L157.053 32.4964L149.082 15.2771L148.624 14.289L148.173 15.2799L140.33 32.4992Z" stroke="white" stroke-opacity="0.25"/>
</g>
<defs>
<clipPath id="clip0_82_678">
<rect width="297" height="58" fill="white" transform="translate(-0.000610352 0.000976562)"/>
</clipPath>
</defs>
</svg>
