<svg width="76" height="391" viewBox="0 0 76 391" fill="none" xmlns="http://www.w3.org/2000/svg">
<path d="M74.811 53.0878L69.9468 53.1489C70.0935 52.807 70.2346 52.4856 70.3722 52.1756L70.3874 52.1414L70.4003 52.1063C71.1602 50.0355 71.8971 47.3511 71.8726 44.5231V44.5032V44.4781V44.4527V44.4269V44.4009V44.3745V44.3479V44.3209V44.2937V44.2661V44.2383V44.2101V44.1817V44.153V44.1239V44.0946V44.065V44.0351V44.0049V43.9744V43.9436V43.9126V43.8813V43.8496V43.8177V43.7855V43.7531V43.7203V43.6873V43.654V43.6204V43.5866V43.5524V43.518V43.4833V43.4484V43.4132V43.3777V43.3419V43.3059V43.2696V43.233V43.1962V43.1591V43.1218V43.0842V43.0463V43.0082V42.9698V42.9312V42.8923V42.8531V42.8137V42.774V42.7341V42.694V42.6536V42.6129V42.572V42.5308V42.4894V42.4478V42.4059V42.3638V42.3214V42.2788V42.2359V42.1929V42.1495V42.106V42.0622V42.0181V41.9739V41.9294V41.8846V41.8397V41.7945V41.7491V41.7034V41.6576V41.6115V41.5652V41.5186V41.4719V41.4249V41.3777V41.3303V41.2826V41.2348V41.1867V41.1384V41.0899V41.0412V40.9923V40.9432V40.8938V40.8443V40.7945V40.7446V40.6944V40.6441V40.5935V40.5427V40.4917V40.4406V40.3892V40.3376V40.2859V40.2339V40.1818V40.1294V40.0769V40.0241V39.9712V39.9181V39.8648V39.8113V39.7576V39.7038V39.6497V39.5955V39.5411V39.4865V39.4317V39.3768V39.3217V39.2663V39.2109V39.1552V39.0994V39.0434V38.9872V38.9309V38.8744V38.8177V38.7608V38.7038V38.6466V38.5893V38.5318V38.4741V38.4163V38.3583V38.3001V38.2418V38.1834V38.1247V38.066V38.007V37.948V37.8887V37.8293V37.7698V37.7101V37.6503V37.5903V37.5302V37.4699V37.4095V37.3489V37.2882V37.2274V37.1664V37.1053V37.0441V36.9827V36.9212V36.8595V36.7977V36.7358V36.6737V36.6115V36.5492V36.4868V36.4242V36.3615V36.2987V36.2358V36.1727V36.1095V36.0462V35.9828V35.9192V35.8556V35.7918V35.7279V35.6639V35.5998V35.5355V35.4712V35.4067V35.3422V35.2775V35.2127V35.1478V35.0828V35.0177V34.9525V34.8872V34.8218V34.7563V34.6907V34.625V34.5592V34.4934V34.4274V34.3613V34.2951V34.2289V34.1625V34.0961V34.0295V33.9629V33.8962V33.8294V33.7626V33.6956V33.6286V33.5614V33.4942V33.427V33.3596V33.2922V33.2247V33.1571V33.0894V33.0217V32.9539V32.886V32.8181V32.75V32.682V32.6138V32.5456V32.4773V32.409V32.3406V32.2721V32.2036V32.135V32.0664V31.9977V31.9289V31.8601V31.7913V31.7223V31.6534V31.5844V31.5153V31.4462V31.377V31.3078V31.2385V31.1692V31.0999V31.0305V30.9611V30.8916V30.8221V30.7525V30.683V30.6133V30.5437V30.474V30.4043V30.3345V30.2647V30.1949V30.125V30.0552V29.9853V29.9153V29.8454V29.7754V29.7054V29.6354V29.5653V29.4953V29.4252V29.3551V29.285V29.2149V29.1447V29.0746V29.0044V28.9342V28.864V28.7938V28.7236V28.6534V28.5832V28.5129V28.4427V28.3725V28.3022V28.232V28.1617V28.0915V28.0213V27.951V27.8808V27.8106V27.7404V27.6702V27.6V27.5298V27.4596V27.3894V27.3193V27.2491V27.179V27.1089V27.0388V26.9687V26.8986V26.8286V26.7586V26.6886V26.6186V26.5487V26.4787V26.4088V26.339V26.2691V26.1993V26.1295V26.0598V25.9901V25.9204V25.8507V25.7811V25.7115V25.642V25.5725V25.503V25.4336V25.3642V25.2949V25.2256V25.1563V25.0871V25.018V24.9489V24.8798V24.8108V24.7418V24.6729V24.6041V24.5353V24.4665V24.3978V24.3292V24.2606V24.1921V24.1237V24.0553V23.9869V23.9187V23.8505V23.7823V23.7143V23.6463V23.5783V23.5105V23.4427V23.375V23.3073V23.2398V23.1723V23.1048V23.0375V22.9702V22.903V22.8359V22.7689V22.702V22.6351V22.5683V22.5016V22.435V22.3685V22.3021V22.2358V22.1695V22.1033V22.0373V21.9713V21.9054V21.8397V21.774V21.7084V21.6429V21.5775V21.5122V21.4471V21.382V21.317V21.2521V21.1874V21.1227V21.0582V20.9937V20.9294V20.8652V20.8011V20.7371V20.6732V20.6095V20.5458V20.4823V20.4189V20.3556V20.2924V20.2294V20.1665V20.1037V20.041V19.9785V19.916V19.8537V19.7916V19.7295V19.6676V19.6059V19.5442V19.4827V19.4214V19.3601V19.2991V19.2381V19.1773V19.1166V19.0561V18.9957V18.9355V18.8754V18.8154V18.7556V18.6959V18.6364V18.5771V18.5178V18.4588V18.3999V18.3411V18.2825V18.2241V18.1658V18.1077V18.0497V17.9919V17.9343V17.8768V17.8195V17.7623V17.7053V17.6485V17.5919V17.5354V17.4791V17.4229V17.367V17.3112V17.2555V17.2001V17.1448V17.0897V17.0348V16.9801V16.9255V16.8711V16.8169V16.7629V16.7091V16.6554V16.602V16.5487V16.4956V16.4427V16.39V16.3375V16.2852V16.2331V16.1812V16.1294V16.0779V16.0265V15.9754V15.9245V15.8737V15.8232V15.7729V15.7227V15.6728V15.6231V15.5736V15.5243V15.4752V15.4263V15.3776V15.3292V15.2809V15.2329V15.1851V15.1375V15.0901V15.0429V14.996V14.9493V14.9028V14.8565V14.8104V13.676H70.7381L41.0162 13.676H39.8818V14.8104V48.1671L36.3014 47.1154V14.8104V13.676H35.167L5.42127 13.676H4.28685V14.8104V14.8482V14.8862V14.9246V14.9633V15.0023V15.0416V15.0813V15.1212V15.1615V15.2021V15.243V15.2842V15.3257V15.3675V15.4096V15.452V15.4947V15.5377V15.581V15.6246V15.6685V15.7127V15.7572V15.802V15.8471V15.8924V15.9381V15.984V16.0302V16.0767V16.1235V16.1706V16.2179V16.2655V16.3134V16.3616V16.4101V16.4588V16.5078V16.557V16.6066V16.6564V16.7064V16.7568V16.8073V16.8582V16.9093V16.9607V17.0123V17.0642V17.1163V17.1687V17.2214V17.2743V17.3274V17.3808V17.4345V17.4884V17.5425V17.5969V17.6515V17.7064V17.7615V17.8168V17.8724V17.9282V17.9842V18.0405V18.097V18.1537V18.2107V18.2679V18.3253V18.383V18.4408V18.4989V18.5572V18.6157V18.6745V18.7334V18.7926V18.852V18.9116V18.9714V19.0314V19.0917V19.1521V19.2127V19.2736V19.3346V19.3959V19.4573V19.519V19.5808V19.6428V19.7051V19.7675V19.8301V19.8929V19.9559V20.0191V20.0825V20.1461V20.2098V20.2737V20.3378V20.4021V20.4666V20.5312V20.5961V20.6611V20.7262V20.7916V20.8571V20.9228V20.9886V21.0546V21.1208V21.1871V21.2536V21.3203V21.3871V21.4541V21.5213V21.5886V21.656V21.7236V21.7914V21.8593V21.9273V21.9955V22.0639V22.1324V22.201V22.2698V22.3387V22.4078V22.477V22.5463V22.6158V22.6854V22.7552V22.825V22.895V22.9652V23.0354V23.1058V23.1763V23.2469V23.3177V23.3886V23.4596V23.5307V23.6019V23.6733V23.7447V23.8163V23.888V23.9598V24.0317V24.1037V24.1758V24.248V24.3203V24.3928V24.4653V24.5379V24.6106V24.6835V24.7564V24.8294V24.9025V24.9757V25.049V25.1223V25.1958V25.2693V25.343V25.4167V25.4905V25.5644V25.6383V25.7123V25.7865V25.8606V25.9349V26.0092V26.0836V26.1581V26.2326V26.3072V26.3819V26.4567V26.5315V26.6063V26.6812V26.7562V26.8313V26.9064V26.9815V27.0567V27.132V27.2073V27.2826V27.358V27.4335V27.509V27.5845V27.6601V27.7357V27.8114V27.8871V27.9628V28.0386V28.1144V28.1903V28.2662V28.3421V28.418V28.494V28.57V28.646V28.722V28.7981V28.8742V28.9503V29.0264V29.1026V29.1787V29.2549V29.3311V29.4073V29.4835V29.5597V29.636V29.7122V29.7884V29.8647V29.9409V30.0172V30.0934V30.1697V30.2459V30.3221V30.3984V30.4746V30.5508V30.627V30.7032V30.7794V30.8556V30.9317V31.0079V31.084V31.1601V31.2362V31.3123V31.3883V31.4643V31.5403V31.6163V31.6922V31.7681V31.844V31.9198V31.9956V32.0714V32.1471V32.2228V32.2985V32.3741V32.4497V32.5252V32.6007V32.6762V32.7516V32.8269V32.9022V32.9775V33.0527V33.1278V33.2029V33.2779V33.3529V33.4278V33.5027V33.5774V33.6522V33.7268V33.8014V33.876V33.9504V34.0248V34.0991V34.1734V34.2476V34.3217V34.3957V34.4696V34.5435V34.6173V34.691V34.7646V34.8381V34.9116V34.9849V35.0582V35.1314V35.2045V35.2774V35.3503V35.4232V35.4959V35.5685V35.641V35.7134V35.7857V35.8579V35.93V36.002V36.0739V36.1457V36.2173V36.2889V36.3603V36.4317V36.5029V36.574V36.6449V36.7158V36.7865V36.8571V36.9276V36.998V37.0682V37.1384V37.2083V37.2782V37.3479V37.4175V37.4869V37.5563V37.6254V37.6945V37.7634V37.8321V37.9008V37.9692V38.0376V38.1057V38.1738V38.2417V38.3094V38.377V38.4444V38.5117V38.5788V38.6457V38.7125V38.7792V38.8457V38.912V38.9781V39.0441V39.11V39.1756V39.2411V39.3064V39.3715V39.4365V39.5013V39.5659V39.6304V39.6946V39.7587V39.8226V39.8863V39.9498V40.0132V40.0764V40.1393V40.2021V40.2647V40.3271V40.3893V40.4513V40.5131V40.5747V40.6362V40.6974V40.7584V40.8192V40.8798V40.9402V41.0004V41.0604V41.1202V41.1797V41.2391V41.2982V41.3572V41.4159V41.4744V41.5326V41.5907V41.6485V41.7061V41.7635V41.8207V41.8776V41.9343V41.9908V42.047V42.103V42.1588V42.2143V42.2696V42.3247V42.3795V42.4341V42.4884V42.5425V42.5964V42.65V42.7033V42.7565V42.8093V42.8619V42.9143V42.9664V43.0182V43.0698V43.1212V43.1722V43.223V43.2736V43.3239V43.3739V43.4237V43.4731V43.5224V43.5713V43.62V43.6684V43.7165V43.7644V43.812V43.8593V43.9063V43.953V43.9995V44.0457V44.0915V44.1371V44.1825V44.2275V44.2722V44.3167V44.3608V44.4047V44.4482V44.4915V44.5345V44.5771V44.6195V44.6616V44.7033V44.7448V44.7859V44.8268V44.8673V44.9075V44.9474V44.987V45.0263V45.0653V45.1039V45.1422V45.1802V45.2179V45.2553V45.2923V45.3291V45.3654V45.4015V45.4372V45.4726V45.5077V45.5424V45.5768V45.6109V45.6446V45.678V45.7111V45.7438V45.7761V45.8082V45.8398V45.8712V45.9021V45.9328V45.9631V45.993V46.0226V46.0518V46.0807V46.1092V46.1373V46.1651V46.1925V46.2196V46.2363C4.23779 49.0805 4.99966 51.8696 5.74696 53.9113C5.94508 54.4526 6.14407 54.9464 6.32996 55.3807L1.18198 54.5898V1.69195C5.41508 3.30245 8.22124 3.29619 11.3742 3.28917C11.5836 3.2887 11.7946 3.28823 12.0077 3.28823L63.9853 3.28823C64.1925 3.28823 64.3988 3.28871 64.6048 3.2892C67.6728 3.2964 70.65 3.3034 74.811 1.70427V16.6496V53.0878ZM5.56435 69.0944C3.94952 69.0557 2.41432 69.0815 1.18198 69.195V62.6389C2.41213 63.1809 3.51476 63.5872 4.7856 63.9281C6.56502 64.4053 8.6439 64.7459 11.8302 65.1815L11.8308 65.1815L74.811 73.7599V76.5189L15.7282 108.166L13.8606 109.167L15.7285 110.167L74.811 141.79V143.464L11.9681 152.329C8.77573 152.779 6.66833 153.182 4.85213 153.709C3.55798 154.085 2.4289 154.52 1.18198 155.063V141.705C4.91047 142.245 9.61651 142.178 13.5209 141.629L49.2795 136.692L52.6723 136.224L49.6708 134.574L1.20576 107.939V104.159L51.8703 77.0854L54.9551 75.437L51.4901 74.9611L12.7327 69.637L12.7245 69.6359C10.4477 69.3401 7.87556 69.1498 5.56435 69.0944ZM1.18198 169.134V162.512C4.03139 164.71 6.02852 165.817 10.1273 167.719L10.1326 167.721L74.811 197.329V199.24L11.9587 228.363L11.9406 228.371L11.9227 228.38C8.80465 229.961 6.70307 231.151 4.83534 232.534C3.57738 233.466 2.44182 234.473 1.18198 235.721V222.229L28.3188 209.707L28.9779 209.403V208.677V182.88V182.15L28.3136 181.847L1.18198 169.493V169.134ZM1.18198 249.865V243.22C4.03139 245.417 6.02852 246.524 10.1273 248.426L10.1326 248.428L74.811 278.037V279.948L11.9584 309.094L11.9404 309.103L11.9227 309.112C8.80466 310.692 6.70307 311.882 4.83534 313.265C3.57738 314.197 2.44182 315.204 1.18198 316.452V302.936L28.3188 290.414L28.9779 290.11L28.9779 289.384V263.587V262.857L28.3136 262.554L1.18198 250.2V249.865ZM17.5084 371.141C10.9808 377.937 4.35165 384.838 1.13442 388.185V375.777C8.00401 368.12 17.0915 358.269 31.3888 345.977L31.3942 345.972C33.5303 344.112 34.7928 342.478 35.5312 341.04C36.2782 339.585 36.4593 338.386 36.5134 337.463L36.5839 336.262H35.381H12.0077C8.57558 336.262 5.68418 336.265 1.18198 337.912V324.278C5.41511 325.889 8.22128 325.883 11.3742 325.876C11.5837 325.875 11.7946 325.875 12.0077 325.875H64.0329C64.24 325.875 64.4464 325.875 64.6523 325.876C67.7204 325.883 70.6975 325.89 74.8586 324.291V339.236C74.8586 339.69 74.86 340.166 74.8616 340.663C74.8797 346.456 74.9063 354.983 72.6786 362.301C71.4746 366.256 69.6374 369.764 66.865 372.277C64.1168 374.769 60.3659 376.362 55.1639 376.362C49.7423 376.362 45.6165 374.188 42.6331 370.73C39.6291 367.248 37.7492 362.418 36.9832 357.106L36.6767 353.891L36.4421 351.429L34.7292 353.212L35.5474 353.998C34.7292 353.212 34.7291 353.212 34.7288 353.213L34.7277 353.214L34.723 353.219L34.7045 353.238L34.6314 353.314L34.3462 353.611L33.2623 354.74L29.3823 358.779C26.1649 362.129 21.8597 366.612 17.5084 371.141ZM39.1315 355.597L39.1207 355.604C42.0096 363.374 49.2621 365.938 55.2361 365.683L55.243 365.682C58.0887 365.543 62.7609 364.816 66.5757 360.806C70.3897 356.796 73.1384 349.727 72.6564 337.377L72.6138 336.287H71.5228H39.1616H38.0868L38.0288 337.36L39.1616 337.421C38.0288 337.36 38.0288 337.36 38.0288 337.36L38.0288 337.361L38.0287 337.363L38.0282 337.371L38.0266 337.402L38.0207 337.519C38.0156 337.622 38.0084 337.772 37.9998 337.965C37.9827 338.349 37.9601 338.902 37.9382 339.577C37.8945 340.925 37.8532 342.766 37.8637 344.73C37.8742 346.69 37.9363 348.789 38.1018 350.651C38.2637 352.471 38.5343 354.203 39.0226 355.341L39.0255 355.348C39.07 355.449 39.1028 355.527 39.1239 355.578C39.1266 355.585 39.1291 355.591 39.1315 355.597ZM33.6166 265.023L32.0115 264.291V266.055V286.891V288.668L33.6229 287.921L56.2829 277.418L58.5216 276.38L56.2766 275.356L33.6166 265.023ZM33.6166 184.34L32.0115 183.608V185.372V206.209V207.985L33.6229 207.238L56.2829 196.735L58.5216 195.697L56.2766 194.674L33.6166 184.34Z" stroke="white" stroke-opacity="0.1" stroke-width="2.26885"/>
</svg>
