<svg width="508" height="580" viewBox="0 0 508 580" fill="none" xmlns="http://www.w3.org/2000/svg">
<g opacity="0.5">
<g filter="url(#filter0_b_82_789)">
<path d="M180.698 347.12L0 114.417V304.859L2.56968 305.162C63.5997 312.572 121.329 324.484 180.675 347.12H180.698ZM243.101 511.057H265.453L254.177 482.68L243.101 511.057ZM329.784 511.057H352.135L340.838 482.68L329.784 511.057ZM425.482 502.205L425.46 502.255C433.169 498.892 435.739 490.546 435.495 483.515C435.207 476.661 432.527 461.84 406.342 463.054V503.545C406.342 503.545 420.985 504.456 425.105 502.407C425.349 502.281 425.46 502.205 425.46 502.205H425.482ZM501.864 324.535C427.852 340.317 293.919 395.198 294.583 394.844C314.875 407.363 336.296 419.781 359.446 437.561C358.825 438.522 358.249 439.205 357.895 439.635C357.673 439.635 357.496 439.559 357.363 439.559C246.933 392.189 126.867 362.851 4.34188 353.696C2.87982 353.594 1.32915 353.544 0 353.493V580H508V323.321C505.94 323.726 503.702 324.156 501.842 324.535H501.864ZM104.98 543.024L103.74 552.483H44.0834C46.5201 545.933 46.3651 542.215 46.3651 537.511V472.437C46.3651 467.885 46.5201 463.838 44.0834 457.465H61.9382H102.3L102.389 467.126C101.259 466.62 100.417 466.14 99.6196 465.735C97.4486 464.799 94.7017 463.965 91.9105 463.965H59.9667V501.168H97.4043L95.5878 508.502H59.9667V545.756H93.727C99.4202 545.857 105.091 542.19 105.091 542.19L104.914 543.024H104.98ZM194.764 552.483C195.54 547.805 195.54 541.178 194.919 535.817L189.647 491.026L160.672 552.483H155.178L125.759 488.269L120.044 536.803C119.38 542.392 119.202 549.474 119.778 552.483H109.411C111.405 547.602 111.892 545.528 112.845 537.536L122.171 457.465H126.934L161.292 532.2L195.518 457.465H199.106L208.787 537.385C209.762 545.351 210.47 547.602 212.376 552.483H194.698H194.764ZM281.912 552.483L268.133 517.708H240.421L226.841 552.483H225.667H216.097H216.053C219.464 547.602 220.638 545.351 223.075 539.231L255.174 457.44H258.785L290.396 536.955C293.786 544.719 295.381 547.147 300.21 552.458H281.912V552.483ZM368.572 552.483L354.816 517.708H327.103L313.501 552.483H312.35H302.735H302.691C306.147 547.602 307.277 545.351 309.713 539.231L341.812 457.44H345.445L377.057 536.955C380.424 544.719 382.041 547.147 386.848 552.458H368.572V552.483ZM447.103 552.559C438.796 543.859 428.052 532.377 414.627 514.167C410.795 509.008 408.115 508.376 406.342 508.224V537.486C406.342 542.19 406.342 545.908 408.668 552.458H390.415C392.896 545.908 392.741 542.19 392.741 537.486V472.336C392.741 467.784 392.896 463.712 390.415 457.364H408.314C420.564 457.364 449.362 456.099 449.362 483.439C449.362 497.829 439.394 505.619 427.631 507.617L424.153 507.996C424.153 507.996 462.233 550.662 463.872 552.509H447.059L447.103 552.559ZM0 0V104.098L207.258 324.13L107.949 0H0H0ZM327.236 347.12C383.392 327.165 447.923 310.321 508 302.835V114.594L507.956 114.644L327.236 347.12ZM395.133 0H257.434L270.437 309.386L395.133 0ZM400.029 0L300.764 324.13L508 102.833V0H400.029ZM250.5 0H112.379L237.629 309.386L250.5 0Z" fill="#FEFEFE"/>
</g>
</g>
<defs>
<filter id="filter0_b_82_789" x="-40" y="-40" width="588" height="660" filterUnits="userSpaceOnUse" color-interpolation-filters="sRGB">
<feFlood flood-opacity="0" result="BackgroundImageFix"/>
<feGaussianBlur in="BackgroundImageFix" stdDeviation="20"/>
<feComposite in2="SourceAlpha" operator="in" result="effect1_backgroundBlur_82_789"/>
<feBlend mode="normal" in="SourceGraphic" in2="effect1_backgroundBlur_82_789" result="shape"/>
</filter>
</defs>
</svg>
