<svg width="360" height="71" viewBox="0 0 360 71" fill="none" xmlns="http://www.w3.org/2000/svg">
<path d="M52.2967 63.7016L51.2281 70.7131H0.111206C2.22623 65.8624 2.09265 63.1283 2.09265 59.6226V11.4239C2.09265 8.02836 2.22623 5.05177 0.111206 0.333321H15.4285H49.9813L50.0704 7.47714C49.1353 7.10231 48.3784 6.77157 47.6882 6.46289C45.8403 5.77938 43.5027 5.13996 41.076 5.16201C37.2021 5.16201 20.9498 5.16201 13.7364 5.16201V32.723H45.8181L44.2374 38.147H13.7364V65.7301C19.6363 65.7301 38.4934 65.7301 42.6567 65.7301C47.5324 65.8183 52.3858 63.0843 52.3858 63.0843L52.2522 63.6796C52.2522 63.7016 52.2745 63.7016 52.2967 63.7016ZM129.239 70.7131C129.929 67.2515 129.929 62.3566 129.373 58.3658L124.831 25.2044L100.03 70.6911H95.3097L70.1075 23.1538L65.2095 59.0934C64.6752 63.2386 64.5194 68.4862 64.9646 70.7131H56.1038C57.8181 67.1192 58.2411 65.5537 59.0426 59.6446L67.0574 0.333321H71.1316L100.542 55.6759L129.929 0.333321H133.002L141.284 59.5123C142.108 65.3994 142.731 67.0971 144.378 70.7131H129.239ZM203.889 70.7131L192.089 44.9381H168.356L156.712 70.7131H155.71H147.495H147.451C150.39 67.0971 151.391 65.4214 153.462 60.9235L180.98 0.333321H184.074L211.146 59.2257C214.041 64.9805 215.399 66.7664 219.54 70.7131H203.889ZM278.137 70.7131L266.338 44.9381H242.605L230.961 70.7131H229.981H221.744H221.699C224.638 67.0971 225.64 65.4214 227.71 60.9235L255.228 0.333321H258.323L285.417 59.2257C288.312 64.9805 289.67 66.7664 293.811 70.7131H278.137ZM345.417 70.7572C338.315 64.341 329.121 55.8302 317.61 42.3363C314.315 38.5219 312 38.0368 310.508 37.9486V59.6226C310.508 63.1063 310.508 65.8624 312.512 70.7131H296.883C298.998 65.8624 298.864 63.1283 298.864 59.6226V11.3798C298.864 7.98426 298.998 5.00767 296.883 0.289223H312.2C322.664 0.289223 347.399 -0.636828 347.399 19.604C347.399 30.2977 338.827 36.0524 328.764 37.5076L325.781 37.7943C325.781 37.7943 358.419 69.3902 359.822 70.7572H345.417ZM326.916 33.4727L326.894 33.4947C333.484 31.0253 335.711 24.8296 335.488 19.5819C335.243 14.5328 332.95 3.55245 310.531 4.4344V34.4428C310.531 34.4428 323.087 35.1264 326.605 33.605C326.805 33.5168 326.916 33.4727 326.916 33.4727ZM244.876 40.0212H264.044L254.382 19.0087L244.876 40.0212ZM170.649 40.0212H189.818L180.156 19.0087L170.649 40.0212Z" fill="white" fill-opacity="0.5"/>
</svg>
