<svg width="21" height="13" viewBox="0 0 21 13" fill="none" xmlns="http://www.w3.org/2000/svg">
<path d="M1.64551 12.75C1.22884 12.75 0.864258 12.5937 0.551758 12.2812C0.239258 11.9687 0.0830078 11.6042 0.0830078 11.1875V1.8125C0.0830078 1.41319 0.239258 1.05295 0.551758 0.731771C0.864258 0.41059 1.22884 0.25 1.64551 0.25H19.3538C19.7705 0.25 20.1351 0.41059 20.4476 0.731771C20.7601 1.05295 20.9163 1.41319 20.9163 1.8125V11.1875C20.9163 11.6042 20.7601 11.9687 20.4476 12.2812C20.1351 12.5937 19.7705 12.75 19.3538 12.75H1.64551ZM1.64551 11.1875H19.3538V1.8125H15.9684V6.5H14.4059V1.8125H11.2809V6.5H9.71842V1.8125H6.59342V6.5H5.03092V1.8125H1.64551V11.1875ZM5.03092 6.5H6.59342H5.03092ZM9.71842 6.5H11.2809H9.71842ZM14.4059 6.5H15.9684H14.4059Z" fill="#071C35"/>
</svg>
