<svg width="21" height="21" viewBox="0 0 21 21" fill="none" xmlns="http://www.w3.org/2000/svg">
<path d="M5.10905 7.4012C4.58822 7.4012 4.14117 7.21457 3.7679 6.84131C3.39464 6.46804 3.20801 6.021 3.20801 5.50016C3.20801 4.97933 3.39464 4.53228 3.7679 4.15902C4.14117 3.78575 4.58822 3.59912 5.10905 3.59912C5.62988 3.59912 6.07693 3.78575 6.4502 4.15902C6.82346 4.53228 7.01009 4.97933 7.01009 5.50016C7.01009 6.021 6.82346 6.46804 6.4502 6.84131C6.07693 7.21457 5.62988 7.4012 5.10905 7.4012V7.4012ZM2.84342 20.9168C2.51356 20.9168 2.23145 20.83 1.99707 20.6564C1.7627 20.4828 1.64551 20.2224 1.64551 19.8752C1.22884 19.8752 0.864258 19.7189 0.551758 19.4064C0.239258 19.0939 0.0830078 18.7293 0.0830078 18.3127V11.5418H3.20801V10.8127C3.20801 10.205 3.42502 9.68419 3.85905 9.25016C4.29308 8.81614 4.81391 8.59912 5.42155 8.59912C5.75141 8.59912 6.06391 8.65989 6.35905 8.78141C6.65419 8.90294 6.9146 9.08523 7.1403 9.32829L8.49447 10.8647C8.61599 11.0036 8.74186 11.1295 8.87207 11.2423C9.00228 11.3552 9.13683 11.455 9.27572 11.5418H16.7497V2.84391C16.7497 2.51405 16.6412 2.23193 16.4242 1.99756C16.2071 1.76318 15.9337 1.646 15.6038 1.646C15.4302 1.646 15.2653 1.66336 15.109 1.69808C14.9528 1.7328 14.8139 1.81093 14.6924 1.93245L13.3382 3.28662C13.425 3.58176 13.438 3.88124 13.3773 4.18506C13.3165 4.48888 13.208 4.77968 13.0518 5.05745L10.3955 2.53141C10.6733 2.34044 10.9771 2.21891 11.307 2.16683C11.6368 2.11475 11.958 2.14947 12.2705 2.271L13.6247 0.942871C13.8851 0.682454 14.1846 0.474121 14.5231 0.317871C14.8617 0.161621 15.2219 0.0834961 15.6038 0.0834961C16.3677 0.0834961 17.0101 0.352593 17.5309 0.890788C18.0518 1.42898 18.3122 2.08002 18.3122 2.84391V11.5418H20.9163V18.3127C20.9163 18.7293 20.7558 19.0939 20.4346 19.4064C20.1134 19.7189 19.7531 19.8752 19.3538 19.8752C19.3538 20.2224 19.2367 20.4828 19.0023 20.6564C18.7679 20.83 18.4771 20.9168 18.1299 20.9168H2.84342ZM1.64551 18.3127H19.3538V13.1043H1.64551V18.3127ZM19.3538 18.3127H1.64551H19.3538Z" fill="#071C35"/>
</svg>
